# xmcd
#
# Track frame offsets:
#	182
#	6112
#	21510
#	44560
#	64245
#	84085
#	103367
#	108387
#	127087
#	137305
#	155745
#	163300
#	183982
#	200195
#	219297
#	231902
#	253537
#	277582
#	298847
#	321037
#
# Disc length: 4589 seconds
#
# Revision: 11
# Processed by: cddbd v1.5.2PL0 Copyright (c) Steve Scherf et al.
# Submitted via: audiograbber 1.83.01
#
DISCID=2911eb14
DTITLE=Ja Rule - Venni Vetti Vecci
DYEAR=1999
DGENRE=Rap
TTITLE0=Ja Rule - The March Prelude
TTITLE1=Ja Rule - We Here Now
TTITLE2=Ja Rule, Nemisis - World's Most Dangerous 
TTITLE3=Ja Rule - Let's Ride
TTITLE4=Ja Rule - Holla Holla
TTITLE5=Ja Rule, Jay-Z - Kill 'Em All 
TTITLE6=Ja Rule - I Hate Niggaz (Skit)
TTITLE7=Ja Rule - Niggaz Theme
TTITLE8=Ja Rule, Case - Suicide Freestyle 
TTITLE9=Ja Rule - Story To Tell
TTITLE10=Ja Rule - Chris Black (Skit)
TTITLE11=Ja Rule - Count On Your Nigga
TTITLE12=Ja Rule, Jay-Z, DMX - It's Murda 
TTITLE13=Ja Rule, Erick Sermon - E-Dub and Ja 
TTITLE14=Ja Rule - 187 Murda Baptiss Church (Skit)
TTITLE15=Ja Rule, Memphis Bleek - Murda 4 Life 
TTITLE16=Ja Rule, Ronald Isley - Daddy's Little Baby 
TTITLE17=Ja Rule - Race Against Time
TTITLE18=Ja Rule - Only Begotten Son
TTITLE19=Ja Rule, Black Child, Tah Murdah - The Murderers 
EXTD=www.RapMusicGuide.com
EXTT0=
EXTT1=
EXTT2=
EXTT3=
EXTT4=
EXTT5=
EXTT6=
EXTT7=
EXTT8=
EXTT9=
EXTT10=
EXTT11=
EXTT12=
EXTT13=
EXTT14=
EXTT15=
EXTT16=
EXTT17=
EXTT18=
EXTT19=
PLAYORDER=
